<?xml version="1.0" encoding="UTF-8"?>
<svg id="Layer_1" data-name="Layer 1" xmlns="http://www.w3.org/2000/svg" viewBox="0 0 56.69 53.44">
  <defs>
    <style>
      .cls-1 {
        fill: #fff;
      }
    </style>
  </defs>
  <path class="cls-1" d="M25.19,46.79c-.09.06-.1.15-.11.23,0,.02,0,.05-.01.09-.13.72-.79,1.2-1.65,1.2h-6.34c.37-.23.72-.46,1.07-.67,4.18-2.63,6.7-4.21,6.7-6.7,0-2.35-1.57-3.93-3.91-3.93-1.93,0-3.82,1.46-4.71,3.63l-.05.12.38.29.08-.21c.69-1.73,2.26-2.88,3.91-2.88,1.82,0,3.04,1.32,3.04,3.27,0,2.45-2.21,3.83-5.88,6.12-.8.5-1.64,1.02-2.54,1.61l-.08.05v.43h10.34l.1-1.08c.04-.46.07-.99.13-1.4l.02-.15-.15-.04c-.11-.03-.23-.06-.33,0"/>
  <path class="cls-1" d="M38.57,48.74h-2.44c0-4.66-.02-10.12-.02-10.12,0-.07.02-1.19.02-1.19,0-.02,0-.05-.01-.07-.01-.04-.01-.07,0-.11.02-.05.02-.11-.02-.16-.03-.05-.09-.08-.14-.08h-.14c-.08,0-.14.05-.17.12,0,0,0,0,0,0-.24.46-4.95,7.34-8.09,11.89-.02.03-.03.06-.03.1v.14c0,.1.08.17.17.17h7.27v3.83c0,.1.08.17.17.17h.81c.09,0,.17-.08.17-.17,0-1.03,0-2.37,0-3.83h2.44c.09,0,.17-.08.17-.17v-.36c0-.1-.08-.17-.17-.17M28.47,48.74c1.1-1.6,4.67-6.76,6.5-9.48v9.48h-6.5Z"/>
  <path class="cls-1" d="M41.12,48.81c0,.23.08.42.24.55.14.12.32.18.51.18.37,0,.75-.25.75-.73,0-.23-.08-.42-.24-.55-.4-.35-1.25-.18-1.26.55"/>
  <path class="cls-1" d="M15.72,16.91h-4.97v.67h1.12c.57,0,1.03.46,1.03,1.03v13.21c0,.17-.11.32-.27.37-.16.05-.33,0-.42-.12L2.7,16.91H0v.67h1.12c.57,0,1.03.46,1.03,1.03v13.03c0,.57-.46,1.03-1.03,1.03H0v.67h4.97v-.67h-2.15v-13.15l8.46,13.41c.25.33.63.51,1.02.51.13,0,.27-.02.4-.07.52-.17.87-.66.87-1.21v-14.59h2.15v-.67Z"/>
  <path class="cls-1" d="M20.47,27.97c-3.66,1.18-4.45,1.79-4.45,3.43,0,1.28.84,2.04,2.24,2.04.97,0,2.09-.58,3.34-1.73.13,1.04.77,1.63,1.78,1.63s1.78-.77,2-1.97l.02-.13-.52-.23-.03.23c-.05.5-.47.87-.97.87h0c-.58,0-.95-.32-.95-.81v-1.6c0-.2-.09-.39-.24-.52-.15-.13-.35-.18-.56-.15-.32.05-.56.33-.56.66.01,1.14-.7,2.17-1.77,2.57-.28.1-.58.16-.88.16-.94,0-1.55-.45-1.55-1.15,0-1.38.48-1.59,2.79-2.58.42-.18.9-.39,1.44-.63.89-.4,1.34-1.13,1.33-2.16-.03-2.18-.92-3.24-2.73-3.24-2.48,0-4,2.06-4,3.18,0,.73.34,1.22.83,1.22h.01c.51,0,.94-.39.98-.91,0-.22-.14-.46-.28-.69-.1-.16-.21-.35-.21-.45,0-.63,1-1.79,2.42-1.79,1.03,0,1.58.75,1.63,2.24.01.33,0,.66-.02,1,0,.7-.45,1.31-1.11,1.52"/>
  <path class="cls-1" d="M29.7,32.74h-1.07v-5.96c-.01-1.15.6-2.21,1.6-2.78.31-.18.66-.28,1.02-.29.01,0,.02,0,.04,0,.58,0,1.15.24,1.57.65.42.43.65,1.01.64,1.62v6.28c0,.26-.21.47-.47.47h-.6v.5h3.27v-.5h-1.06v-6.76c0-.37.14-.71.39-.97.74-.75,1.85-1.29,2.65-1.29,1.58,0,1.81,1.42,1.81,2.27v6.28c0,.26-.21.47-.47.47h-.6v.5h3.28v-.5h-1.06v-6.76c0-1.61-.19-3.32-2.45-3.32-1.06,0-2.68.82-3.66,2.17-.31-1.42-1.26-2.17-2.77-2.17-1.04,0-2.22.81-3.12,2.11v-1.43c0-.13-.06-.24-.16-.32-.1-.07-.24-.09-.35-.05l-1.32.47.17.47.45-.16-.05-.14h0s.1.18.1.18v8.48c0,.26-.21.47-.47.47h-.6v.5h3.3v-.5Z"/>
  <path class="cls-1" d="M51.88,31.24c-.05.5-.47.87-.97.87h0c-.58,0-.95-.32-.95-.81v-1.6c0-.2-.09-.39-.24-.52-.15-.13-.35-.18-.56-.15-.32.05-.56.33-.56.66.01,1.14-.7,2.17-1.77,2.57-.28.1-.58.16-.88.16-.94,0-1.55-.45-1.55-1.15,0-1.38.48-1.59,2.79-2.58.42-.18.9-.39,1.44-.63.89-.4,1.34-1.13,1.33-2.16-.03-2.18-.92-3.24-2.73-3.24-2.48,0-4,2.06-4,3.18,0,.73.34,1.22.83,1.22.53.01.95-.39,1-.91,0-.22-.14-.46-.28-.69-.1-.16-.21-.35-.21-.45,0-.63,1-1.79,2.42-1.79,1.03,0,1.58.75,1.63,2.24.01.33,0,.66-.02,1,0,.7-.45,1.31-1.11,1.52-3.66,1.18-4.45,1.79-4.45,3.43,0,1.28.84,2.04,2.24,2.04.97,0,2.09-.58,3.34-1.73.13,1.04.77,1.63,1.78,1.63s1.78-.77,2-1.97l.02-.13-.52-.23-.03.23Z"/>
  <path class="cls-1" d="M55.62,32.74v-13.42c0-1.34-.4-2.41-1.18-3.18-1.02-1-2.69-1.5-4.95-1.47h-.28s.7,1.36.7,1.36l.13-.02c1.67-.32,2.85-.41,3.56.18.6.5.88,1.49.88,3.13v12.95c-.01.26-.23.47-.49.47h-.6v.5h3.3v-.5h-1.07Z"/>
  <path class="cls-1" d="M22.84,16.43h-.98v-5.09c-.01-1.26.72-2.41,1.86-2.93.28-.13.58-.2.88-.21,1.02,0,1.79.9,1.79,2.1v5.71c0,.23-.19.41-.41.41h-.56v.48h3.02v-.48h-.97v-6.13c0-1.9-.9-3.04-2.41-3.04-1.11,0-2.33.77-3.18,1.97v-4.99c-.01-1.49.24-2.39.78-2.84.64-.53,1.71-.45,3.22-.16l.13.02L26.64,0h-.28c-2.09-.03-3.58.42-4.51,1.34-.71.7-1.07,1.68-1.07,2.9v11.77c0,.23-.19.41-.42.41h-.56v.48h3.04v-.48Z"/>
  <path class="cls-1" d="M31.69,17.09c.88,0,1.9-.52,3.03-1.55.13.93.71,1.46,1.63,1.46s1.63-.71,1.83-1.8l.02-.13-.5-.22-.02.23c-.05.44-.42.78-.87.78h0c-.52,0-.85-.28-.85-.72v-1.45c0-.19-.08-.36-.22-.48-.14-.12-.32-.17-.52-.14-.3.05-.52.31-.52.62,0,1.03-.63,1.96-1.6,2.32-.26.09-.53.14-.8.15-.85,0-1.4-.4-1.4-1.03,0-1.25.44-1.43,2.53-2.33.38-.17.82-.35,1.31-.57.82-.37,1.23-1.03,1.21-1.98-.03-1.99-.84-2.96-2.49-2.96-2.27,0-3.65,1.88-3.65,2.91,0,.67.31,1.12.77,1.12h.01c.47,0,.87-.36.91-.85,0-.21-.13-.43-.25-.64-.08-.14-.18-.32-.18-.4,0-.57.9-1.61,2.18-1.61.92,0,1.42.68,1.47,2.02.01.29,0,.59-.02.9,0,.63-.4,1.18-1,1.37-3.33,1.07-4.05,1.63-4.05,3.13,0,1.17.77,1.87,2.05,1.87"/>
  <path class="cls-1" d="M30.17,5.36s1.69-1.99,2.35-2.85c.34-.39.66-.81.95-1.24l.03-.04v-.05c0-.21-.39-.48-.59-.48q-.11,0-.83,1.02l-.2.29c-.67.87-2.02,2.99-2.08,3.08l-.09.13.34.26.11-.12Z"/>
</svg>